<?xml version="1.0" encoding="utf-8"?><!DOCTYPE svg PUBLIC "-//W3C//DTD SVG 1.1//EN" "http://www.w3.org/Graphics/SVG/1.1/DTD/svg11.dtd"><svg version="1.1" baseProfile="full" xmlns="http://www.w3.org/2000/svg" xmlns:xlink="http://www.w3.org/1999/xlink" xmlns:ev="http://www.w3.org/2001/xml-events" height="37.9px" width="124.9px" ><path fill="rgb( 255, 255, 255 )" d="M120.139,23.311 C118.232,25.597 115.635,26.74 112.349,26.74 C109.062,26.74 106.462,25.593 104.547,23.3 C102.633,21.007 101.675,18.073 101.675,14.497 C101.675,14.497 101.675,14.007 101.675,14.007 C101.675,10.446 102.629,7.511 104.536,5.203 C106.443,2.896 109.033,1.742 112.305,1.742 C115.606,1.742 118.214,2.892 120.128,5.192 C122.043,7.492 123,10.431 123,14.007 C123,14.007 123,14.497 123,14.497 C123,18.088 122.046,21.026 120.139,23.311 ZM118.665,13.996 C118.665,11.477 118.126,9.379 117.047,7.705 C115.969,6.03 114.388,5.192 112.305,5.192 C110.236,5.192 108.67,6.03 107.606,7.705 C106.542,9.379 106.011,11.477 106.011,13.996 C106.011,13.996 106.011,14.485 106.011,14.485 C106.011,17.035 106.542,19.139 107.606,20.8 C108.67,22.459 110.25,23.289 112.349,23.289 C114.417,23.289 115.987,22.459 117.058,20.8 C118.129,19.139 118.665,17.035 118.665,14.485 C118.665,14.485 118.665,13.996 118.665,13.996 ZM104.16,1.26 C104.16,1.26 100.343,2.736 99.039,8.007 C98.801,8.726 98.575,9.906 98.511,10.852 C98.427,11.739 98.401,12.691 98.449,13.71 C98.449,13.72 98.45,13.73 98.45,13.74 C98.45,13.779 98.449,13.817 98.449,13.855 C98.449,13.855 98.449,14.489 98.449,14.489 C98.449,15.103 98.471,15.702 98.515,16.286 C98.516,16.398 98.516,16.51 98.516,16.617 C98.518,20.356 98.929,23.566 98.929,26.406 C98.929,31.171 97.746,32.062 95.971,33.717 C94.196,35.372 92.325,36 88.98,36 C87.836,36 86.599,35.84 85.272,35.521 C83.944,35.202 82.774,34.768 81.762,34.219 C81.762,34.219 82.862,30.814 82.862,30.814 C83.64,31.258 84.579,31.618 85.679,31.893 C86.779,32.167 87.865,32.305 88.936,32.305 C91.049,32.305 92.585,31.818 93.546,30.847 C94.507,29.874 94.988,28.394 94.988,26.406 C94.988,26.406 94.988,23.69 94.988,23.69 C94.21,24.7 93.279,25.46 92.193,25.972 C91.107,26.483 89.86,26.74 88.452,26.74 C85.532,26.74 83.236,25.671 81.564,23.534 C79.891,21.398 79.055,18.6 79.055,15.142 C79.055,15.142 79.055,14.675 79.055,14.675 C79.055,10.802 79.891,7.678 81.564,5.303 C83.236,2.929 85.547,1.742 88.496,1.742 C90.007,1.742 91.335,2.05 92.479,2.666 C93.623,3.281 94.8,3.452 95.34,3.433 C95.871,3.416 102.731,0 104.283,1.195 C104.242,1.217 104.2,1.247 104.155,1.283 C104.158,1.268 104.16,1.26 104.16,1.26 ZM94.988,8.643 C94.43,7.618 93.704,6.806 92.809,6.205 C91.914,5.604 90.836,5.303 89.574,5.303 C87.506,5.303 85.958,6.179 84.931,7.93 C83.904,9.681 83.39,11.929 83.39,14.675 C83.39,14.675 83.39,15.142 83.39,15.142 C83.39,17.562 83.896,19.505 84.909,20.974 C85.921,22.443 87.462,23.178 89.53,23.178 C90.836,23.178 91.929,22.877 92.809,22.276 C93.69,21.676 94.416,20.826 94.988,19.728 C94.988,19.728 94.988,8.643 94.988,8.643 ZM61.764,15.364 C61.809,17.673 62.388,19.571 63.503,21.058 C64.618,22.546 66.18,23.289 68.191,23.289 C69.657,23.289 70.945,23.078 72.053,22.655 C73.16,22.232 74.118,21.65 74.925,20.908 C74.925,20.908 76.619,23.76 76.619,23.76 C75.768,24.611 74.646,25.32 73.252,25.888 C71.858,26.456 70.171,26.74 68.191,26.74 C64.875,26.74 62.238,25.623 60.279,23.389 C58.32,21.157 57.341,18.259 57.341,14.697 C57.341,14.697 57.341,13.718 57.341,13.718 C57.341,10.29 58.35,7.437 60.367,5.158 C62.384,2.881 64.772,1.742 67.53,1.742 C70.743,1.742 73.171,2.721 74.815,4.68 C76.458,6.639 77.279,9.251 77.279,12.515 C77.279,12.515 77.279,15.253 77.279,15.253 C77.279,15.253 61.831,15.253 61.831,15.253 C61.831,15.253 61.764,15.364 61.764,15.364 ZM61.963,11.803 C61.963,11.803 72.944,11.803 72.944,11.803 C72.944,11.803 72.944,11.227 72.944,11.227 C72.944,9.511 72.489,8.076 71.58,6.922 C70.67,5.769 69.32,5.192 67.53,5.192 C66.078,5.192 64.838,5.81 63.811,7.044 C62.784,8.28 62.153,9.829 61.919,11.692 C61.919,11.692 61.963,11.803 61.963,11.803 ZM51.019,11.825 C51.019,9.451 50.615,7.771 49.808,6.784 C49.001,5.797 47.798,5.303 46.199,5.303 C44.717,5.303 43.518,5.823 42.601,6.862 C41.684,7.901 41.145,9.214 40.984,10.802 C40.984,10.802 40.984,10.98 40.984,10.98 C40.984,10.98 40.984,26.272 40.984,26.272 C40.984,26.272 36.626,26.272 36.626,26.272 C36.626,26.272 36.626,11.825 36.626,11.825 C36.626,9.57 36.211,7.919 35.383,6.873 C34.554,5.827 33.361,5.303 31.807,5.303 C30.486,5.303 29.4,5.578 28.55,6.127 C27.699,6.676 27.046,7.448 26.591,8.442 C26.591,8.442 26.591,26.272 26.591,26.272 C26.591,26.272 22.256,26.272 22.256,26.272 C22.256,26.272 22.256,2.187 22.256,2.187 C22.256,2.187 26.129,2.187 26.129,2.187 C26.129,2.187 26.437,5.348 26.437,5.348 C27.214,4.205 28.201,3.319 29.397,2.688 C30.592,2.057 31.983,1.742 33.567,1.742 C35.152,1.742 36.512,2.113 37.649,2.854 C38.786,3.597 39.641,4.71 40.213,6.194 C40.962,4.829 41.952,3.745 43.184,2.944 C44.417,2.142 45.854,1.742 47.498,1.742 C49.918,1.742 51.833,2.584 53.241,4.268 C54.65,5.952 55.354,8.486 55.354,11.87 C55.354,11.87 55.354,26.272 55.354,26.272 C55.354,26.272 51.019,26.272 51.019,26.272 C51.019,26.272 51.019,11.825 51.019,11.825 ZM15.108,24.347 C15.027,23.79 14.979,23.231 14.965,22.666 C14.158,23.823 13.105,24.792 11.807,25.571 C10.508,26.35 9.111,26.74 7.615,26.74 C5.135,26.74 3.246,26.098 1.948,24.814 C0.649,23.531 0,21.761 0,19.505 C0,17.205 0.921,15.406 2.762,14.107 C4.603,12.809 7.101,12.159 10.255,12.159 C10.255,12.159 14.965,12.159 14.965,12.159 C14.965,12.159 14.965,9.777 14.965,9.777 C14.965,8.368 14.539,7.251 13.688,6.427 C12.837,5.604 11.634,5.192 10.079,5.192 C8.685,5.192 7.552,5.552 6.679,6.272 C5.806,6.991 5.37,7.856 5.37,8.865 C5.37,8.865 1.233,8.865 1.233,8.865 C1.233,8.865 1.189,8.731 1.189,8.731 C1.1,6.98 1.918,5.378 3.642,3.923 C5.366,2.469 7.592,1.742 10.321,1.742 C13.021,1.742 15.192,2.436 16.835,3.823 C18.478,5.21 19.3,7.21 19.3,9.822 C19.3,9.822 19.3,21.42 19.3,21.42 C19.3,22.28 19.344,23.111 19.432,23.913 C19.52,24.714 19.682,25.501 19.916,26.272 C19.916,26.272 15.449,26.272 15.449,26.272 C15.302,25.545 15.188,24.903 15.108,24.347 ZM14.965,15.12 C14.965,15.12 10.101,15.12 10.101,15.12 C8.355,15.12 6.958,15.564 5.909,16.452 C4.86,17.339 4.336,18.383 4.336,19.582 C4.336,20.648 4.666,21.491 5.326,22.112 C5.986,22.734 6.961,23.045 8.253,23.045 C9.823,23.045 11.238,22.638 12.5,21.824 C13.762,21.01 14.583,20.077 14.965,19.027 C14.965,19.027 14.965,15.12 14.965,15.12 Z "/></svg>